<?xml version="1.0" encoding="UTF-8"?>
<svg id="Calque_1" data-name="Calque 1" xmlns="http://www.w3.org/2000/svg" xmlns:xlink="http://www.w3.org/1999/xlink" viewBox="0 0 1632.67 555.75">
  <defs>
    <style>
      .st-654-cls-1, .st-654-cls-2 {
        fill: #d3b86f;
      }

      .st-654-cls-3 {
        fill: #0e346b;
      }

      .st-654-cls-4 {
        fill: none;
        stroke: #d3b86f;
        stroke-miterlimit: 10;
        stroke-width: 9.67px;
      }

      .st-654-cls-2 {
        fill-rule: evenodd;
      }

      .st-654-cls-5 {
        fill: url(#st-654-radial-gradient);
        opacity: .48;
      }
    </style>
    <radialGradient id="st-654-radial-gradient" cx="563.25" cy="2731.88" fx="563.25" fy="2731.88" r="68.08" gradientTransform="translate(-891.29 114.36) scale(1.99 .16)" gradientUnits="userSpaceOnUse">
      <stop offset="0" stop-color="#000"/>
      <stop offset="1" stop-color="#000" stop-opacity="0"/>
    </radialGradient>
  </defs>
  <path class="st-654-cls-1" d="M585.13,12.02c.93,0,2.57,2.48,4.94,7.42,7.62,3.08,11.43,7.02,11.43,11.83,0,1.34-1.91,4.75-5.71,10.23v4.61h4.33c.93,0,1.6,3.34,2.01,10.03,2.26,0,3.71,2.48,4.33,7.42-7.11,16.04-10.66,24.6-10.66,25.67v175.86c0,20.99-6.85,33.56-20.55,37.7h-17.76v-1.8c10.91-4.94,16.37-20.32,16.37-46.12V89.22c0-1.07-3.55-9.63-10.66-25.67v-1c0-2.14,1.65-4.88,4.94-8.22,0-5.48,.46-8.22,1.39-8.22h4.33v-4.61c-3.81-5.48-5.72-8.89-5.72-10.23,0-4.81,4.27-9.09,12.82-12.83,0-1.87,1.39-4.01,4.17-6.42Z"/>
  <path class="st-654-cls-1" d="M735.1,12.02c.93,0,2.57,2.48,4.94,7.42,7.52,3.08,11.28,7.02,11.28,11.83,0,1.34-1.91,4.75-5.71,10.23v4.61h4.33c.93,0,1.65,3.34,2.16,10.03,2.26,0,3.65,2.48,4.17,7.42-7.11,16.04-10.66,24.6-10.66,25.67V254.85c0,25.8,5.46,41.18,16.37,46.12v1.8h-17.76c-10.2,0-18.44-14.7-24.72-44.11-9.37-28.07-23.12-82.35-41.24-162.82-8.86-41.31-16.63-64.37-23.33-69.18h-.77c-4.22,5.48-6.33,16.84-6.33,34.09v204.33c0,20.99-6.85,33.56-20.55,37.7h-17.76v-1.8c10.91-4.94,16.37-20.32,16.37-46.12V51.52c0-18.31,6.13-31.15,18.38-38.5h21.93c10.61,0,19.62,14.97,27.03,44.92l29.81,128.94h.62V89.22c0-1.07-3.55-9.63-10.66-25.67v-1c0-2.14,1.65-4.88,4.94-8.22,0-5.48,.51-8.22,1.54-8.22h4.17v-4.61c-3.81-5.48-5.72-8.89-5.72-10.23,0-4.81,4.27-9.09,12.82-12.83,0-1.87,1.44-4.01,4.33-6.42Z"/>
  <path class="st-654-cls-1" d="M786.99,12.02c.93,0,2.57,2.48,4.94,7.42,7.52,2.94,11.28,6.89,11.28,11.83,0,1.34-1.91,4.68-5.71,10.03v4.61h4.33c.93,0,1.65,3.41,2.16,10.23,2.16,0,3.55,2.41,4.17,7.22-7.11,16.04-10.66,24.6-10.66,25.67v13.84c0,17.11,5.2,25.67,15.6,25.67h54.37c16.17,0,25.85,8.89,29.04,26.67v120.92c0,13.1-8.7,21.99-26.11,26.67h-65.03c-16.17,0-25.85-8.89-29.04-26.67v-22.86h1.39c0,4.55,4.48,10.36,13.44,17.45,3.81,1.2,6.18,1.8,7.11,1.8h60.71c10.4,0,15.6-7.62,15.6-22.86v-65.17c0-17.11-5.2-25.67-15.6-25.67h-51.59c-16.79,0-27.34-7.95-31.67-23.86v-45.92c0-1.07-3.55-9.63-10.66-25.67v-.8c0-2.14,1.65-4.94,4.94-8.42,0-5.48,.46-8.22,1.39-8.22h4.33v-4.61c-3.81-5.35-5.71-8.69-5.71-10.03,0-4.94,4.22-9.22,12.67-12.83,0-1.87,1.44-4.01,4.33-6.42Zm16.99,1h64.88c16.17,0,25.85,8.82,29.04,26.47v23.06h-1.39c0-4.68-4.48-10.49-13.44-17.45-3.81-1.2-6.18-1.8-7.11-1.8h-64.26l-4.94,.8-2.16-3.61,2.16-4.61v-7.42c0-5.08-3.3-9.36-9.89-12.83v-1.8l7.11-.8Z"/>
  <path class="st-654-cls-1" d="M936.21,13.02h48.35v1.8c-5.25,0-9.27,4.61-12.05,13.84v7.42c1.44,2.41,2.16,4.21,2.16,5.41-.72,0-1.44,.94-2.16,2.81l-4.94-.8h-7.11c-6.7,0-11.48,3.34-14.37,10.03-.72,3.21-1.39,15.51-2.01,36.9-5.25,18.45-11.89,27.67-19.93,27.67h-18.54v-1.8c11.43-4.68,17.15-20.05,17.15-46.12V32.27c0-9.36,4.48-15.77,13.44-19.25Zm56.85-1c1.03,0,2.73,2.48,5.1,7.42,7.52,3.08,11.28,7.09,11.28,12.03,0,1.34-1.91,4.68-5.71,10.03v4.61h4.33c.93,0,1.65,3.41,2.16,10.23,2.26,0,3.71,2.48,4.33,7.42-7.21,16.04-10.81,24.66-10.81,25.87V254.85c.1,26.2,5.82,41.58,17.15,46.12v1.8h-18.54c-10.09,0-16.94-12.03-20.54-36.09V89.62c0-1.2-3.55-9.83-10.66-25.87v-1c0-2.14,1.65-4.88,4.94-8.22,0-5.61,.46-8.42,1.39-8.42h4.33v-4.61c-3.81-5.35-5.72-8.69-5.72-10.03,0-4.94,4.27-9.29,12.82-13.03,0-1.87,1.39-4.01,4.17-6.42Zm8.65,1h46.19c8.96,3.48,13.44,9.89,13.44,19.25v37.9c.1,26.2,5.82,41.58,17.15,46.12v1.8h-18.54c-10.09,0-16.94-11.96-20.54-35.89,0-24.06-2.16-36.09-6.49-36.09-2.27-1.74-5.36-2.61-9.27-2.61h-5.56l-5.1,.8-2.01-3.61,2.01-4.61v-7.42c-2.88-9.22-6.64-13.84-11.28-13.84v-1.8Z"/>
  <path class="st-654-cls-1" d="M1107.64,12.02c.93,0,2.57,2.48,4.94,7.42,7.62,3.08,11.43,7.02,11.43,11.83,0,1.34-1.91,4.75-5.71,10.23v4.61h4.33c.93,0,1.6,3.34,2.01,10.03,2.26,0,3.71,2.48,4.33,7.42-7.11,16.04-10.66,24.6-10.66,25.67v175.86c0,20.99-6.85,33.56-20.55,37.7h-17.76v-1.8c10.91-4.94,16.37-20.32,16.37-46.12V89.22c0-1.07-3.55-9.63-10.66-25.67v-1c0-2.14,1.65-4.88,4.94-8.22,0-5.48,.46-8.22,1.39-8.22h4.33v-4.61c-3.81-5.48-5.72-8.89-5.72-10.23,0-4.81,4.27-9.09,12.82-12.83,0-1.87,1.39-4.01,4.17-6.42Z"/>
  <path class="st-654-cls-1" d="M1161.07,13.02h48.35v1.8c-5.25,0-9.27,4.61-12.05,13.84v7.42c1.44,2.41,2.16,4.21,2.16,5.41-.72,0-1.44,.94-2.16,2.81l-4.94-.8h-7.11c-6.7,0-11.48,3.34-14.37,10.03-.72,3.21-1.39,15.51-2.01,36.9-5.25,18.45-11.89,27.67-19.93,27.67h-18.54v-1.8c11.43-4.68,17.15-20.05,17.15-46.12V32.27c0-9.36,4.48-15.77,13.44-19.25Zm56.85-1c1.03,0,2.73,2.48,5.1,7.42,7.52,3.08,11.28,7.09,11.28,12.03,0,1.34-1.91,4.68-5.71,10.03v4.61h4.33c.93,0,1.65,3.41,2.16,10.23,2.26,0,3.71,2.48,4.33,7.42-7.21,16.04-10.81,24.66-10.81,25.87V254.85c.1,26.2,5.82,41.58,17.15,46.12v1.8h-18.54c-10.09,0-16.94-12.03-20.54-36.09V89.62c0-1.2-3.55-9.83-10.66-25.87v-1c0-2.14,1.65-4.88,4.94-8.22,0-5.61,.46-8.42,1.39-8.42h4.33v-4.61c-3.81-5.35-5.72-8.69-5.72-10.03,0-4.94,4.27-9.29,12.82-13.03,0-1.87,1.39-4.01,4.17-6.42Zm8.65,1h46.19c8.96,3.48,13.44,9.89,13.44,19.25v37.9c.1,26.2,5.82,41.58,17.15,46.12v1.8h-18.54c-10.09,0-16.94-11.96-20.54-35.89,0-24.06-2.16-36.09-6.49-36.09-2.27-1.74-5.36-2.61-9.27-2.61h-5.56l-5.1,.8-2.01-3.61,2.01-4.61v-7.42c-2.88-9.22-6.64-13.84-11.28-13.84v-1.8Z"/>
  <path class="st-654-cls-1" d="M1332.98,12.02c.93,0,2.57,2.48,4.94,7.42,7.62,3.08,11.43,7.02,11.43,11.83,0,1.34-1.91,4.75-5.72,10.23v4.61h4.33c.93,0,1.6,3.34,2.01,10.03,2.26,0,3.71,2.48,4.33,7.42-7.11,16.04-10.66,24.6-10.66,25.67v168.44c0,8.42,3.29,13.97,9.89,16.64h55.3c7.11,0,10.66-11.7,10.66-35.09V89.22c0-1.07-3.55-9.63-10.66-25.67v-1c0-2.14,1.65-4.88,4.94-8.22,0-5.48,.46-8.22,1.39-8.22h4.33v-4.61c-3.81-5.48-5.72-8.89-5.72-10.23,0-4.81,4.27-9.09,12.82-12.83,0-1.87,1.39-4.01,4.17-6.42,1.03,0,2.68,2.48,4.94,7.42,7.62,3.08,11.43,7.02,11.43,11.83,0,1.34-1.91,4.75-5.72,10.23v4.61h4.33c.93,0,1.6,3.34,2.01,10.03,2.26,0,3.71,2.48,4.33,7.42-7.11,16.04-10.66,24.6-10.66,25.67v174.86c0,18.58-6.13,31.48-18.38,38.7h-80.79c-10.09,0-16.94-11.96-20.55-35.89V89.22c0-1.07-3.55-9.63-10.66-25.67v-1c0-2.14,1.65-4.88,4.94-8.22,0-5.48,.46-8.22,1.39-8.22h4.33v-4.61c-3.81-5.48-5.72-8.89-5.72-10.23,0-4.81,4.27-9.09,12.82-12.83,0-1.87,1.39-4.01,4.17-6.42Z"/>
  <path class="st-654-cls-1" d="M1490.4,13.02h48.35v1.8c-5.25,0-9.27,4.61-12.05,13.84v7.42c1.44,2.41,2.16,4.21,2.16,5.41-.72,0-1.44,.94-2.16,2.81l-4.94-.8h-7.11c-6.7,0-11.48,3.34-14.37,10.03-.72,3.21-1.39,15.51-2.01,36.9-5.25,18.45-11.89,27.67-19.93,27.67h-18.54v-1.8c11.43-4.68,17.15-20.05,17.15-46.12V32.27c0-9.36,4.48-15.77,13.44-19.25Zm56.85-1c1.03,0,2.73,2.48,5.1,7.42,7.52,3.08,11.28,7.09,11.28,12.03,0,1.34-1.91,4.68-5.71,10.03v4.61h4.33c.93,0,1.65,3.41,2.16,10.23,2.26,0,3.71,2.48,4.33,7.42-7.21,16.04-10.81,24.66-10.81,25.87V254.85c.1,26.2,5.82,41.58,17.15,46.12v1.8h-18.54c-10.09,0-16.94-12.03-20.54-36.09V89.62c0-1.2-3.55-9.83-10.66-25.87v-1c0-2.14,1.65-4.88,4.94-8.22,0-5.61,.46-8.42,1.39-8.42h4.33v-4.61c-3.81-5.35-5.72-8.69-5.72-10.03,0-4.94,4.27-9.29,12.82-13.03,0-1.87,1.39-4.01,4.17-6.42Zm8.65,1h46.19c8.96,3.48,13.44,9.89,13.44,19.25v37.9c.1,26.2,5.82,41.58,17.15,46.12v1.8h-18.54c-10.09,0-16.94-11.96-20.54-35.89,0-24.06-2.16-36.09-6.49-36.09-2.27-1.74-5.36-2.61-9.27-2.61h-5.56l-5.1,.8-2.01-3.61,2.01-4.61v-7.42c-2.88-9.22-6.64-13.84-11.28-13.84v-1.8Z"/>
  <path class="st-654-cls-3" d="M575.95,333.06c.85,0,2.36,1.07,4.54,3.2,6.91,1.37,10.36,3.14,10.36,5.34,0,.59-1.7,2.08-5.11,4.45v2.05h3.83c.85,0,1.51,1.48,1.99,4.45,1.99,0,3.27,1.07,3.83,3.2-6.44,7.12-9.65,10.91-9.65,11.39,0,14.83,.19,42.13,.57,81.92,0,5.4,4.3,9.46,12.92,12.19v.8h-20.59c-6.91,0-11.26-2.85-13.06-8.54v-86.37c0-.47-3.22-4.27-9.65-11.39v-.36c0-.95,1.51-2.16,4.54-3.65,0-2.43,.43-3.65,1.28-3.65h3.83v-2.05c-3.41-2.37-5.11-3.85-5.11-4.45,0-2.19,3.88-4.09,11.64-5.69,0-.83,1.28-1.78,3.83-2.85Zm7.81,.44h73.82c9.18,0,15.43,5.25,18.74,15.74v95.71c0,8.13-5.63,13.82-16.89,17.08h-43.3c-14.76,0-23.62-3.91-26.55-11.74v-10.14h1.28c0,2.02,4.12,4.57,12.35,7.65,3.41,.59,5.54,.89,6.39,.89h32.37c9.56,0,14.34-3.11,14.34-9.34v-83.17c0-6.23-4.78-9.34-14.34-9.34h-43.3l-4.54,.44-1.99-1.69,1.99-1.96v-3.29c-2.75-4.03-6.2-6.05-10.36-6.05v-.8Z"/>
  <g>
    <path class="st-654-cls-3" d="M714.2,333.06c.85,0,2.36,1.1,4.54,3.29,7,1.36,10.51,3.11,10.51,5.25,0,.59-1.75,2.11-5.25,4.54v2.05h3.98c.85,0,1.47,1.48,1.84,4.45,2.08,0,3.41,1.1,3.98,3.29-6.53,7.12-9.8,10.91-9.8,11.39v74.72c0,3.74,3.03,6.2,9.09,7.38h50.82c6.53,0,9.8-5.19,9.8-15.57v-66.54c0-.47-3.27-4.27-9.8-11.39v-.44c0-.95,1.51-2.16,4.54-3.65,0-2.43,.43-3.65,1.28-3.65h3.98v-2.05c-3.5-2.43-5.25-3.94-5.25-4.54,0-2.13,3.93-4.03,11.78-5.69,0-.83,1.28-1.78,3.83-2.85,.95,0,2.46,1.1,4.54,3.29,7,1.36,10.51,3.11,10.51,5.25,0,.59-1.75,2.11-5.25,4.54v2.05h3.98c.85,0,1.47,1.48,1.85,4.45,2.08,0,3.41,1.1,3.98,3.29-6.53,7.12-9.8,10.91-9.8,11.39v77.57c0,8.24-5.63,13.97-16.89,17.17h-74.25c-9.28,0-15.57-5.31-18.88-15.92v-78.81c0-.47-3.27-4.27-9.8-11.39v-.44c0-.95,1.51-2.16,4.54-3.65,0-2.43,.43-3.65,1.28-3.65h3.98v-2.05c-3.5-2.43-5.25-3.94-5.25-4.54,0-2.13,3.93-4.03,11.78-5.69,0-.83,1.28-1.78,3.83-2.85Z"/>
    <path class="st-654-cls-3" d="M924.46,333.06c.85,0,2.36,1.1,4.54,3.29,6.91,1.3,10.36,3.06,10.36,5.25,0,.59-1.75,2.08-5.25,4.45v2.05h3.98c.85,0,1.51,1.51,1.99,4.54,1.99,0,3.27,1.07,3.83,3.2-6.53,7.12-9.8,10.91-9.8,11.39v6.14c0,7.59,4.78,11.39,14.34,11.39h49.97c14.86,0,23.76,3.94,26.69,11.83v53.64c0,5.81-8,9.75-23.99,11.83h-59.77c-14.86,0-23.76-3.94-26.69-11.83v-10.14h1.28c0,2.02,4.12,4.6,12.35,7.74,3.5,.53,5.68,.8,6.53,.8h55.79c9.56,0,14.34-3.38,14.34-10.14v-28.91c0-7.59-4.78-11.39-14.34-11.39h-47.42c-15.43,0-25.13-3.53-29.1-10.59v-20.37c0-.47-3.27-4.27-9.8-11.39v-.36c0-.95,1.51-2.19,4.54-3.74,0-2.43,.43-3.65,1.28-3.65h3.98v-2.05c-3.5-2.37-5.25-3.85-5.25-4.45,0-2.19,3.88-4.09,11.64-5.69,0-.83,1.32-1.78,3.98-2.85Zm15.62,.44h59.63c14.86,0,23.75,3.91,26.69,11.74v10.23h-1.28c0-2.07-4.12-4.65-12.35-7.74-3.5-.53-5.68-.8-6.53-.8h-59.06l-4.54,.36-1.99-1.6,1.99-2.05v-3.29c0-2.25-3.03-4.15-9.09-5.69v-.8l6.53-.36Z"/>
    <path class="st-654-cls-3" d="M1060.33,333.06c.85,0,2.36,1.1,4.54,3.29,7,1.36,10.51,3.11,10.51,5.25,0,.59-1.75,2.11-5.25,4.54v2.05h3.83c.95,0,1.61,1.48,1.99,4.45,2.08,0,3.41,1.1,3.98,3.29-6.53,7.12-9.8,10.91-9.8,11.39v24.55h69.71v-29.8c0-10.61-3.03-15.92-9.09-15.92h-52.81l-1.28-.44,1.99-2.05v-3.2c-2.84-4.09-6.34-6.14-10.51-6.14v-.8h72.97c9.56,0,15.85,5.43,18.88,16.28v91c0,11.45,5.02,18.27,15.05,20.46v.8h-16.33c-12.59-1.84-18.88-7.41-18.88-16.72v-40.38h-69.71v40.38c0,9.31-6.3,14.89-18.88,16.72h-16.33v-.8c10.03-2.19,15.05-9.01,15.05-20.46v-73.47c0-.47-3.27-4.27-9.8-11.39v-.44c0-.95,1.51-2.16,4.54-3.65,0-2.43,.43-3.65,1.28-3.65h3.98v-2.05c-3.5-2.43-5.25-3.94-5.25-4.54,0-2.13,3.88-4.03,11.64-5.69,0-.83,1.33-1.78,3.98-2.85Z"/>
    <path class="st-654-cls-3" d="M1199.31,333.06c.95,0,2.46,1.07,4.54,3.2,6.91,1.37,10.36,3.14,10.36,5.34,0,.59-1.7,2.08-5.11,4.45v2.05h3.83c.85,0,1.51,1.48,1.99,4.45,2.08,0,3.36,1.07,3.83,3.2-.76,1.54-3.79,4.8-9.09,9.78,11.74,53.96,18.88,82.61,21.44,85.93,.57,.06,2.27,1.69,5.11,4.89h1.42c5.96-1.72,10.46-11.03,13.49-27.93,5.2-23.36,8.89-38.52,11.07-45.45,0-.3-.24-.44-.71-.44,2.65-9.13,3.98-14.79,3.98-16.99-6.06-5.63-9.09-9.01-9.09-10.14,0-.95,1.51-2.16,4.54-3.65,0-2.43,.43-3.65,1.28-3.65h3.83v-2.05c-3.41-2.37-5.11-3.85-5.11-4.45,0-2.19,3.88-4.09,11.64-5.69,0-.83,1.28-1.78,3.83-2.85,.85,0,2.36,1.07,4.54,3.2,3.88,0,7.33,1.78,10.36,5.34,0,.59-1.7,2.08-5.11,4.45v2.05h3.83c.85,0,1.51,1.48,1.99,4.45,1.99,0,3.27,1.07,3.83,3.2-6.44,6.94-9.65,10.88-9.65,11.83-12.12,52.3-19.02,80.41-20.73,84.33-5.59,6.76-11.88,10.14-18.88,10.14l-8.94-.8-9.09,.8c-9.94,0-17.09-5.54-21.44-16.63-8.61-38.25-14.86-65.02-18.74-80.32-6.06-5.1-9.09-8.33-9.09-9.7,0-.95,1.51-2.16,4.54-3.65,0-2.43,.43-3.65,1.28-3.65h3.83v-2.05c-3.41-2.37-5.11-3.85-5.11-4.45,0-2.19,3.88-4.09,11.64-5.69,0-.83,1.28-1.78,3.83-2.85Z"/>
    <path class="st-654-cls-3" d="M1325.95,333.06c.85,0,2.36,1.1,4.54,3.29,7,1.36,10.51,3.11,10.51,5.25,0,.59-1.75,2.11-5.25,4.54v2.05h3.83c.95,0,1.61,1.48,1.99,4.45,2.08,0,3.41,1.1,3.98,3.29-6.53,7.12-9.8,10.91-9.8,11.39v69.83c0,7.65,4.78,11.47,14.34,11.47h42.31c9.56,0,14.34-3.82,14.34-11.47v-74.27c0-5.52-4.54-9.99-13.63-13.43v-.44h16.18c8.14,0,14.01,3.53,17.6,10.59v93.93c0,4.15-4.12,7-12.35,8.54h-86.6c-8.23-1.54-12.35-4.39-12.35-8.54v-86.19c0-.47-3.27-4.27-9.8-11.39v-.44c0-.95,1.51-2.16,4.54-3.65,0-2.43,.43-3.65,1.28-3.65h3.98v-2.05c-3.5-2.43-5.25-3.94-5.25-4.54,0-2.13,3.93-4.03,11.78-5.69,0-.83,1.28-1.78,3.83-2.85Zm7.81,.44h75.53c4.92,0,10.55,2.58,16.89,7.74l.71,2.05v10.59h-.71c-5.02-4.33-11.92-6.49-20.73-6.49h-33.22c-6.25,0-14.72-.15-25.41-.44-.76,.3-1.61,.44-2.56,.44l-1.99-1.69,1.99-2.05v-3.2c-2.75-4.09-6.25-6.14-10.51-6.14v-.8Z"/>
  </g>
  <path class="st-654-cls-3" d="M1464.31,333.06c.85,0,2.36,1.1,4.54,3.29,7,1.36,10.51,3.11,10.51,5.25,0,.59-1.75,2.11-5.25,4.54v2.05h3.98c.85,0,1.47,1.48,1.84,4.45,2.08,0,3.41,1.1,3.98,3.29-6.53,7.12-9.8,10.91-9.8,11.39v78.01c0,9.31-6.3,14.89-18.88,16.72h-16.33v-.8c10.03-2.19,15.05-9.01,15.05-20.46v-73.47c0-.47-3.27-4.27-9.8-11.39v-.44c0-.95,1.51-2.16,4.54-3.65,0-2.43,.43-3.65,1.28-3.65h3.98v-2.05c-3.5-2.43-5.25-3.94-5.25-4.54,0-2.13,3.93-4.03,11.78-5.69,0-.83,1.28-1.78,3.83-2.85Z"/>
  <path class="st-654-cls-3" d="M1512.13,333.06c.85,0,2.36,1.1,4.54,3.29,7,1.36,10.51,3.11,10.51,5.25,0,.59-1.75,2.11-5.25,4.54v2.05h3.83c.95,0,1.61,1.48,1.99,4.45,2.08,0,3.41,1.1,3.98,3.29-6.53,7.12-9.8,10.91-9.8,11.39v78.01c0,9.31-6.3,14.89-18.88,16.72h-16.33v-.8c10.03-2.19,15.05-9.01,15.05-20.46v-73.47c0-.47-3.27-4.27-9.8-11.39v-.44c0-.95,1.51-2.16,4.54-3.65,0-2.43,.43-3.65,1.28-3.65h3.98v-2.05c-3.5-2.43-5.25-3.94-5.25-4.54,0-2.13,3.88-4.03,11.64-5.69,0-.83,1.33-1.78,3.98-2.85Zm7.81,.44h73.68c9.28,0,15.57,5.31,18.88,15.92,.38,3.56,.57,7.35,.57,11.39v20.01c0,8.48-5.87,14.2-17.6,17.17h-35.78c26.5,28.94,42.59,45.93,48.27,50.97,6.62,4.09,12.49,6.14,17.6,6.14h2.56l4.54-.44c-11.36,4.92-18.98,7.38-22.86,7.38-11.93,0-23-6.94-33.22-20.81l-46.85-49.37c-2.65-1.72-3.98-3.62-3.98-5.69v-10.67h1.42c0,2.61,4.31,5.34,12.92,8.18,3.5,.53,5.68,.8,6.53,.8h31.94c9.56,0,14.34-3.11,14.34-9.34v-18.77c0-6.28-4.78-9.43-14.34-9.43h-43.58l-4.69,.44-1.85-1.69,1.85-2.05v-3.2c-2.65-4.09-6.11-6.14-10.36-6.14v-.8Z"/>
  <g>
    <ellipse class="st-654-cls-5" cx="231.36" cy="545.02" rx="135.69" ry="10.73"/>
    <g>
      <path class="st-654-cls-3" d="M464.51,18.56c-.92,.87-2.03,1.48-3.32,1.67-6.58,.97-12.07-.65-17.22-4.93-2.79-2.32-5.03-5.27-6.69-8.51-1.21-1.64-2.26-3.35-3.08-5.11-.02,.02-.04,.03-.06,.05,0,0-.01,.01-.02,.02V405.12s-66.1-42.68-201.41,34.42c-135.31-77.11-201.41-34.42-201.41-34.42V0h-.28c-.2,.63-.48,1.27-.85,1.92C23.39,13.53,13.21,22.09,.94,20.74L.2,429.8c-1.17,16.46,3.11,25.47,5.45,30.56,4.67-7.44,13.62-12.54,19.06-14.5,48.63-67,177.78-3.13,191,3.53-14,5.09-55.24,39.96-90.25,66.21,24.19-11.6,105.17-57.14,107.27-58.32,2.1,1.18,83.08,46.72,107.27,58.32-35.01-26.25-76.25-61.12-90.25-66.21,13.23-6.66,142.38-70.52,191-3.53,5.45,1.96,14.39,7.05,19.06,14.5,2.33-5.09,6.61-14.1,5.45-30.56l-.74-411.24Z"/>
      <polygon class="st-654-cls-2" points="276.76 366.86 185.95 366.86 216.24 322.58 246.48 322.58 276.76 366.86"/>
      <rect class="st-654-cls-1" x="149.43" y="366.55" width="166.6" height="3.94"/>
      <path class="st-654-cls-3" d="M.94,20.74c5.88,1.61,10.61-.35,15.23-3.61-4.75,2.77-9.42,4.22-15.23,3.61Z"/>
      <rect class="st-654-cls-4" x="74.38" y="119.96" width="316.77" height="199.64" rx="18.45" ry="18.45" transform="translate(-1.21 1.29) rotate(-.32)"/>
    </g>
  </g>
</svg>